<?xml version="1.0" encoding="utf-8"?>
<!-- Generator: Adobe Illustrator 21.0.0, SVG Export Plug-In . SVG Version: 6.00 Build 0)  -->
<svg version="1.1" id="Layer_1" xmlns="http://www.w3.org/2000/svg" xmlns:xlink="http://www.w3.org/1999/xlink" x="0px"
	y="0px" viewBox="0 0 512 512" xml:space="preserve">
	<style type="text/css">
		.st0 {
			fill: #555555;
		}
	</style>
	<g>
		<path class="st0" d="M491.9,156.4c-19.5-46-51.9-85-92.7-112.6C358.3,16.1,308.9,0,256,0c-35.3,0-69,7.2-99.6,20.1c-46,19.5-85,51.9-112.6,92.7
		C16.1,153.7,0,203.1,0,256c0,35.3,7.2,69,20.1,99.6c19.5,46,51.9,85,92.7,112.6C153.7,495.9,203.1,512,256,512
		c35.3,0,69-7.2,99.6-20.1c46-19.5,85-51.9,112.6-92.7C495.9,358.3,512,308.9,512,256C512,220.7,504.8,187,491.9,156.4z M472.6,256
		c0,29.9-6.1,58.4-17,84.3c-16.4,38.8-43.9,72-78.5,95.3c-17.3,11.7-36.3,20.9-56.7,27.3c-20.3,6.3-41.9,9.7-64.4,9.7
		c-29.9,0-58.4-6.1-84.3-17c-38.8-16.4-72-43.9-95.3-78.5c-11.7-17.3-20.9-36.3-27.3-56.7c-6.3-20.3-9.7-41.9-9.7-64.4
		c0-29.9,6.1-58.4,17-84.3c16.4-38.8,43.9-72,78.5-95.3c17.3-11.7,36.3-20.9,56.7-27.3c20.3-6.3,41.9-9.7,64.4-9.7
		c29.9,0,58.4,6.1,84.3,17c38.8,16.4,72,43.9,95.3,78.5c11.7,17.3,20.9,36.3,27.3,56.7C469.2,211.9,472.6,233.5,472.6,256l19.7,0v0
		H472.6z" />
		<path class="st0" d="M386.8,142.6c-8.3-7.1-20.7-6.1-27.7,2.3L208.2,324.5l-55.7-61.9c-7.3-8.1-19.7-8.7-27.8-1.5c-8.1,7.3-8.7,19.7-1.5,27.8
		l70.9,78.8c3.8,4.2,9.3,6.6,15,6.5c5.7-0.1,11.1-2.7,14.7-7l165.4-196.9C396.2,162,395.1,149.6,386.8,142.6z" />
	</g>
</svg>