<?xml version="1.0" encoding="utf-8"?>
<svg fill="#b4bde7" version="1.1" xmlns="http://www.w3.org/2000/svg" xmlns:xlink="http://www.w3.org/1999/xlink" x="0px"
	y="0px" viewBox="131 -131 512 512" xml:space="preserve">
	<g>
		<path d="M586.7-22.6c5.1,5.1,10.2,12.8,13.7,21.3c3.4,9.4,6,17.9,6,24.7v329.4c0,7.7-2.6,14.5-7.7,19.6
		s-12,8.6-19.7,8.6H195c-7.7,0-14.5-2.6-19.6-7.7c-5.1-5.1-7.7-11.9-7.7-19.6v-457.4c0-7.7,2.6-14.5,7.7-19.6
		c5.1-5.1,11.9-7.7,19.6-7.7h256c7.7,0,16.2,1.7,24.7,6c9.4,3.4,16.2,8.5,21.3,13.7L586.7-22.6z M460.4-91.7V15.8h107.5
		c-1.7-5.1-4.3-9.4-6-11.9l-90.5-89.6C469.8-88.3,465.5-90,460.4-91.7z M569.6,344.3V51.6H451c-7.7,0-14.5-2.6-19.6-7.7
		c-5.1-5.1-7.7-11.9-7.7-19.6V-94.3H204.4v438.6L569.6,344.3L569.6,344.3z" />
	</g>
</svg>